{"title":"Track Aircraft with a $20 Software Defined Radio","uid":10475964,"size":289533458,"categoryP":"video","categoryS":"other","magnet":"?xt=urn:btih:c35659d070cd94f41dba28faee95ec49c41d6293&amp;dn=Track+Aircraft+with+a+%2420+Software+Defined+Radio&amp;tr=udp%3A%2F%2Ftracker.openbittorrent.com%3A80&amp;tr=udp%3A%2F%2Fopen.demonii.com%3A1337&amp;tr=udp%3A%2F%2Ftracker.coppersurfer.tk%3A6969&amp;tr=udp%3A%2F%2Fexodus.desync.com%3A6969","seeders":1,"leechers":0,"uploader":"chilinvilin","files":1,"time":1404334015,"description":"Track Aircraft with a $20 Software Defined Radio\n\n\nTracking Aircraft with a $20 dongle and Software Defined Radio. Sniffing 1090 MHz for ADS-B to map live air traffic with free software. Plus, USB micro controller hacking with Richard Harmon at Shmoocon 2014\n\n\n\nFormat                                   : MPEG-4\nFormat profile                           : Base Media / Version 2\nCodec ID                                 : mp42\nFile size                                : 276 MiB\nDuration                                 : 23mn 46s\nOverall bit rate mode                    : Variable\nOverall bit rate                         : 1 624 Kbps\nEncoded date                             : UTC 2014-02-14 20:00:06\nTagged date                              : UTC 2014-02-14 20:00:06\ngsst                                     : 0\ngstd                                     : 1426540\ngssd                                     : BADC20884MH1404326272365199\ngshh                                     : r13---sn-a5m7lne6.googlevideo.com\n\nVideo\nID                                       : 1\nFormat                                   : AVC\nFormat/Info                              : Advanced Video Codec\nFormat profile                           : &lt;a class=&quot;__cf_email__&quot; href=&quot;/cdn-cgi/l/email-protection&quot; data-cfemail=&quot;155d7c727d5559263b24&quot;&gt;[email&amp;#160;protected]&lt;/a&gt;&lt;script cf-hash='f9e31' type=&quot;text/javascript&quot;&gt;\n/* &lt;![CDATA[ */!function(){try{var t=&quot;currentScript&quot;in document?document.currentScript:function(){for(var t=document.getElementsByTagName(&quot;script&quot;),e=t.length;e--;)if(t[e].getAttribute(&quot;cf-hash&quot;))return t[e]}();if(t&amp;&amp;t.previousSibling){var e,r,n,i,c=t.previousSibling,a=c.getAttribute(&quot;data-cfemail&quot;);if(a){for(e=&quot;&quot;,r=parseInt(a.substr(0,2),16),n=2;a.length-n;n+=2)i=parseInt(a.substr(n,2),16)^r,e+=String.fromCharCode(i);e=document.createTextNode(e),c.parentNode.replaceChild(e,c)}}}catch(u){}}();/* ]]&gt; */&lt;/script&gt;\nFormat settings, CABAC                   : Yes\nFormat settings, ReFrames                : 1 frame\nCodec ID                                 : avc1\nCodec ID/Info                            : Advanced Video Coding\nDuration                                 : 23mn 46s\nBit rate                                 : 1 429 Kbps\nMaximum bit rate                         : 13.2 Mbps\nWidth                                    : 1 280 pixels\nHeight                                   : 720 pixels\nDisplay aspect ratio                     : 16:9\nFrame rate mode                          : Constant\nFrame rate                               : 29.970 fps\nColor space                              : YUV\nChroma subsampling                       : 4:2:0\nBit depth                                : 8 bits\nScan type                                : Progressive\nBits/(Pixel*Frame)                       : 0.052\nStream size                              : 243 MiB (88%)\nTagged date                              : UTC 2014-02-14 20:01:46\n\nAudio\nID                                       : 2\nFormat                                   : AAC\nFormat/Info                              : Advanced Audio Codec\nFormat profile                           : LC\nCodec ID                                 : 40\nDuration                                 : 23mn 46s\nBit rate mode                            : Variable\nBit rate                                 : 192 Kbps\nMaximum bit rate                         : 203 Kbps\nChannel(s)                               : 2 channels\nChannel positions                        : Front: L R\nSampling rate                            : 44.1 KHz\nCompression mode                         : Lossy\nStream size                              : 32.6 MiB (12%)","torrent":{"xt":"urn:btih:c35659d070cd94f41dba28faee95ec49c41d6293","amp;dn":"Track+Aircraft+with+a+%2420+Software+Defined+Radio","amp;tr":["udp%3A%2F%2Ftracker.openbittorrent.com%3A80","udp%3A%2F%2Fopen.demonii.com%3A1337","udp%3A%2F%2Ftracker.coppersurfer.tk%3A6969","udp%3A%2F%2Fexodus.desync.com%3A6969"],"infoHash":"c35659d070cd94f41dba28faee95ec49c41d6293","infoHashBuffer":{"type":"Buffer","data":[195,86,89,208,112,205,148,244,29,186,40,250,238,149,236,73,196,29,98,147]},"announce":[],"urlList":[]}}